<?xml version='1.0' encoding='utf-8'?>
<!DOCTYPE svg PUBLIC '-//W3C//DTD SVG 1.1//EN' 'http://www.w3.org/Graphics/SVG/1.1/DTD/svg11.dtd'>
<svg version="1.1" xmlns="http://www.w3.org/2000/svg" viewBox="0 0 512 512" xmlns:xlink="http://www.w3.org/1999/xlink" enable-background="new 0 0 512 512">
  <g>
    <g>
      <path d="m449.7,134.8c-7.9-8.1-20.8-8.3-28.9-0.4-8.1,7.9-8.3,20.8-0.5,28.9 49.6,51.1 49.7,134.4 0,185.5-11,11.3-3.7,24.9 0.5,28.9 8.1,7.9 21,7.6 28.9-0.4 64.7-66.9 64.7-175.6 0-242.5z" fill="#000000"/>
      <path d="m387.1,180.3c-7.9-8.1-20.8-8.3-28.9-0.4-8.1,7.8-8.3,20.8-0.5,28.9 25.3,26 24.7,67.9 0,94.5-10.6,11.4-3.7,24.9 0.5,28.9 8.1,7.9 21,7.6 28.9-0.4 40.5-41.9 40.5-109.7 0-151.5z" fill="#000000"/>
      <path d="M292.417,0.967c-3.797-1.749-8.299-1.088-11.435,1.685L113.323,149.34H32.001c-17.643,0-32,14.357-32,32v149.333
			c0,17.643,14.357,32,32,32h81.323l167.659,146.688c1.984,1.749,4.48,2.645,7.019,2.645c1.493,0,3.008-0.32,4.416-0.96
			c3.797-1.728,6.251-5.525,6.251-9.707V10.674C298.667,6.492,296.214,2.695,292.417,0.967z"/>
    </g>
  </g>
</svg>
